<?xml version="1.0" encoding="UTF-8" standalone="no"?>
<!-- Created with Inkscape (http://www.inkscape.org/) -->

<svg
   xmlns:dc="http://purl.org/dc/elements/1.1/"
   xmlns:cc="http://creativecommons.org/ns#"
   xmlns:rdf="http://www.w3.org/1999/02/22-rdf-syntax-ns#"
   xmlns:svg="http://www.w3.org/2000/svg"
   xmlns="http://www.w3.org/2000/svg"
   version="1.1"
   width="320"
   height="320"
   id="svg3276">
  <defs
     id="defs3278" />
  <metadata
     id="metadata3281">
    <rdf:RDF>
      <cc:Work
         rdf:about="">
        <dc:format>image/svg+xml</dc:format>
        <dc:type
           rdf:resource="http://purl.org/dc/dcmitype/StillImage" />
        <dc:title></dc:title>
      </cc:Work>
    </rdf:RDF>
  </metadata>
  <g
     transform="translate(0,-732.36218)"
     id="layer1">
    <path
       d="m 160.23804,1046.3921 c 92.545,0 147.404,-23.116 147.404,-23.116 14.962,-5.543 13.3,-37.68407 0,-42.67107 0,0 17.732,-23.275 -1.108,-41.008 0,0 13.854,-24.382 -7.758,-41.562 0,0 6.65,-22.721 -12.746,-36.574 0,0 7.204,-26.599 -17.179,-39.346 0,0 0,-28.813 -25.491,-34.91 0,0 -3.879,-26.046 -38.791,-28.263 0,0 -12.189,-22.324 -44.331,-22.324 -32.141,0 -44.332,22.324 -44.332,22.324 -34.911998,2.217 -38.790998,28.263 -38.790998,28.263 -25.491,6.097 -25.491,34.91 -25.491,34.91 -24.383,12.747 -17.179,39.346 -17.179,39.346 -19.396,13.854 -12.746,36.574 -12.746,36.574 -21.6119998,17.18 -7.758,41.562 -7.758,41.562 -18.8409998,17.732 -1.108,41.008 -1.108,41.008 -13.2999998,4.987 -14.9619998,37.12807 0,42.67107 0,0 54.86,23.116 147.404998,23.116 z"
       id="path2183"
       style="fill:#fcc21d;fill-opacity:1;stroke:#000000;stroke-width:3;stroke-linecap:round;stroke-linejoin:round" />
    <path
       d="m 161.14336,1046.3921 c 7.058,0 13.893,-0.136 20.504,-0.385 l 0,-14.024 c 0,-11.323 -9.18,-20.504 -20.504,-20.504 -11.324,0 -20.504,9.181 -20.504,20.504 l 0,14.024 c 6.611,0.25 13.446,0.385 20.504,0.385 z"
       id="path2185" />
    <path
       d="m 308.54736,980.60503 c 0,0 -54.859,24.62207 -147.404,24.62207 -92.545,0 -147.405,-24.62207 -147.405,-24.62207"
       id="path2187"
       style="fill:none;stroke:#000000;stroke-width:3;stroke-linecap:round;stroke-linejoin:round" />
    <path
       d="m 307.43936,939.59703 c 0,0 -64.282,26.442 -146.296,26.442 -82.015,0 -146.296,-26.442 -146.296,-26.442"
       id="path2189"
       style="fill:none;stroke:#000000;stroke-width:3;stroke-linecap:round;stroke-linejoin:round" />
    <path
       d="m 299.68136,898.03603 c 0,0 -64.282,23.672 -138.538,23.672 -74.256,0 -138.539,-23.672 -138.539,-23.672"
       id="path2191"
       style="fill:none;stroke:#000000;stroke-width:3;stroke-linecap:round;stroke-linejoin:round" />
    <path
       d="m 286.93536,861.46203 c 0,0 -62.619,20.9 -125.792,20.9 -63.173,0 -125.792,-20.9 -125.792,-20.9"
       id="path2193"
       style="fill:none;stroke:#000000;stroke-width:3;stroke-linecap:round;stroke-linejoin:round" />
    <path
       d="m 269.75636,822.11603 c 0,0 -48.21,20.346 -108.613,20.346 -60.403,0 -108.614,-20.346 -108.614,-20.346"
       id="path2195"
       style="fill:none;stroke:#000000;stroke-width:3;stroke-linecap:round;stroke-linejoin:round" />
    <path
       d="m 244.26536,787.20603 c 0,0 -39.898,16.467 -83.122,16.467 -43.224,0 -83.123,-16.467 -83.123,-16.467"
       id="path2197"
       style="fill:none;stroke:#000000;stroke-width:3;stroke-linecap:round;stroke-linejoin:round" />
    <path
       d="m 205.47436,758.94303 c 0,0 -11.081,8.552 -44.331,8.552 -33.25,0 -44.332,-8.552 -44.332,-8.552"
       id="path2199"
       style="fill:none;stroke:#000000;stroke-width:3;stroke-linecap:round;stroke-linejoin:round" />
  </g>
</svg>
